<mxfile host="Electron" modified="2024-06-27T16:33:30.665Z" agent="Mozilla/5.0 (Windows NT 10.0; Win64; x64) AppleWebKit/537.36 (KHTML, like Gecko) draw.io/24.6.1 Chrome/124.0.6367.207 Electron/30.0.6 Safari/537.36" etag="hriU-FjYZr3noGSIP07Z" version="24.6.1" type="device">
  <diagram id="42CTazs8RvztbI1hMv4h" name="PÃ¡gina-1">
    <mxGraphModel dx="2440" dy="2576" grid="1" gridSize="10" guides="1" tooltips="1" connect="1" arrows="1" fold="1" page="1" pageScale="1" pageWidth="827" pageHeight="1169" math="0" shadow="0">
      <root>
        <mxCell id="0" />
        <mxCell id="1" parent="0" />
        <mxCell id="fZrfjf4ZiOjg9vHSnZEF-5" value="us-east-1b" style="fillColor=none;strokeColor=#147EBA;dashed=1;verticalAlign=top;fontStyle=0;fontColor=#147EBA;whiteSpace=wrap;html=1;" parent="1" vertex="1">
          <mxGeometry x="900.25" y="200" width="400" height="780" as="geometry" />
        </mxCell>
        <mxCell id="tyxObl4fR7WhXBJt-Da6-1" value="AWS Cloud" style="sketch=0;outlineConnect=0;gradientColor=none;html=1;whiteSpace=wrap;fontSize=12;fontStyle=0;shape=mxgraph.aws4.group;grIcon=mxgraph.aws4.group_aws_cloud;strokeColor=#AAB7B8;fillColor=none;verticalAlign=top;align=left;spacingLeft=30;fontColor=#AAB7B8;dashed=0;" parent="1" vertex="1">
          <mxGeometry x="110" y="-100" width="1280" height="1100" as="geometry" />
        </mxCell>
        <mxCell id="tyxObl4fR7WhXBJt-Da6-2" value="VPC" style="sketch=0;outlineConnect=0;gradientColor=none;html=1;whiteSpace=wrap;fontSize=12;fontStyle=0;shape=mxgraph.aws4.group;grIcon=mxgraph.aws4.group_vpc;strokeColor=#879196;fillColor=none;verticalAlign=top;align=left;spacingLeft=30;fontColor=#879196;dashed=0;" parent="1" vertex="1">
          <mxGeometry x="150" y="240" width="1200" height="710" as="geometry" />
        </mxCell>
        <mxCell id="fZrfjf4ZiOjg9vHSnZEF-8" value="Private Subnet - 10.0.2.&lt;span style=&quot;background-color: initial;&quot;&gt;0/24&lt;/span&gt;" style="sketch=0;outlineConnect=0;html=1;whiteSpace=wrap;fontSize=12;fontStyle=0;shape=mxgraph.aws4.group;grIcon=mxgraph.aws4.group_subnet;strokeColor=#6c8ebf;fillColor=#dae8fc;verticalAlign=top;align=left;spacingLeft=30;dashed=0;" parent="1" vertex="1">
          <mxGeometry x="920" y="440" width="360" height="150" as="geometry" />
        </mxCell>
        <mxCell id="fZrfjf4ZiOjg9vHSnZEF-4" value="us-east-1a" style="fillColor=none;strokeColor=#147EBA;dashed=1;verticalAlign=top;fontStyle=0;fontColor=#147EBA;whiteSpace=wrap;html=1;" parent="1" vertex="1">
          <mxGeometry x="330" y="200" width="400" height="780" as="geometry" />
        </mxCell>
        <mxCell id="tyxObl4fR7WhXBJt-Da6-32" value="Public Subnet - 10.0.200.0/24" style="sketch=0;outlineConnect=0;html=1;whiteSpace=wrap;fontSize=12;fontStyle=0;shape=mxgraph.aws4.group;grIcon=mxgraph.aws4.group_subnet;strokeColor=#82b366;fillColor=#d5e8d4;verticalAlign=top;align=left;spacingLeft=30;dashed=0;" parent="1" vertex="1">
          <mxGeometry x="920" y="280" width="360.5" height="150" as="geometry" />
        </mxCell>
        <mxCell id="tyxObl4fR7WhXBJt-Da6-11" value="Private Subnet - 10.0.5.0/24" style="sketch=0;outlineConnect=0;html=1;whiteSpace=wrap;fontSize=12;fontStyle=0;shape=mxgraph.aws4.group;grIcon=mxgraph.aws4.group_subnet;strokeColor=#6c8ebf;fillColor=#dae8fc;verticalAlign=top;align=left;spacingLeft=30;dashed=0;" parent="1" vertex="1">
          <mxGeometry x="350.5" y="790" width="360" height="150" as="geometry" />
        </mxCell>
        <mxCell id="tyxObl4fR7WhXBJt-Da6-3" value="Private Subnet - 10.0.1.0/24" style="sketch=0;outlineConnect=0;html=1;whiteSpace=wrap;fontSize=12;fontStyle=0;shape=mxgraph.aws4.group;grIcon=mxgraph.aws4.group_subnet;strokeColor=#6c8ebf;fillColor=#dae8fc;verticalAlign=top;align=left;spacingLeft=30;dashed=0;" parent="1" vertex="1">
          <mxGeometry x="350" y="440" width="360" height="150" as="geometry" />
        </mxCell>
        <mxCell id="tyxObl4fR7WhXBJt-Da6-4" value="Private Subnet - 10.0.3.0/24" style="sketch=0;outlineConnect=0;html=1;whiteSpace=wrap;fontSize=12;fontStyle=0;shape=mxgraph.aws4.group;grIcon=mxgraph.aws4.group_subnet;strokeColor=#6c8ebf;fillColor=#dae8fc;verticalAlign=top;align=left;spacingLeft=30;dashed=0;" parent="1" vertex="1">
          <mxGeometry x="350" y="615" width="360" height="150" as="geometry" />
        </mxCell>
        <mxCell id="tyxObl4fR7WhXBJt-Da6-12" value="Amazon&lt;br&gt;Aurora Multi AZ" style="sketch=0;outlineConnect=0;fontColor=#232F3E;gradientColor=none;strokeColor=#ffffff;fillColor=#232F3E;dashed=0;verticalLabelPosition=middle;verticalAlign=bottom;align=center;html=1;whiteSpace=wrap;fontSize=10;fontStyle=1;spacing=3;shape=mxgraph.aws4.productIcon;prIcon=mxgraph.aws4.aurora;" parent="1" vertex="1">
          <mxGeometry x="490.5" y="820" width="80" height="110" as="geometry" />
        </mxCell>
        <mxCell id="tyxObl4fR7WhXBJt-Da6-17" style="edgeStyle=orthogonalEdgeStyle;rounded=0;orthogonalLoop=1;jettySize=auto;html=1;" parent="1" source="tyxObl4fR7WhXBJt-Da6-13" target="tyxObl4fR7WhXBJt-Da6-16" edge="1">
          <mxGeometry relative="1" as="geometry" />
        </mxCell>
        <mxCell id="tyxObl4fR7WhXBJt-Da6-13" value="users" style="sketch=0;outlineConnect=0;gradientColor=none;fontColor=#545B64;strokeColor=none;fillColor=#879196;dashed=0;verticalLabelPosition=bottom;verticalAlign=top;align=center;html=1;fontSize=12;fontStyle=0;aspect=fixed;shape=mxgraph.aws4.illustration_users;pointerEvents=1" parent="1" vertex="1">
          <mxGeometry x="775" y="-280" width="100" height="100" as="geometry" />
        </mxCell>
        <mxCell id="tyxObl4fR7WhXBJt-Da6-21" style="edgeStyle=orthogonalEdgeStyle;rounded=0;orthogonalLoop=1;jettySize=auto;html=1;" parent="1" source="tyxObl4fR7WhXBJt-Da6-16" target="tyxObl4fR7WhXBJt-Da6-19" edge="1">
          <mxGeometry relative="1" as="geometry" />
        </mxCell>
        <mxCell id="tyxObl4fR7WhXBJt-Da6-16" value="Amazon Route 53" style="sketch=0;outlineConnect=0;fontColor=#232F3E;gradientColor=none;strokeColor=#ffffff;fillColor=#232F3E;dashed=0;verticalLabelPosition=middle;verticalAlign=bottom;align=center;html=1;whiteSpace=wrap;fontSize=10;fontStyle=1;spacing=3;shape=mxgraph.aws4.productIcon;prIcon=mxgraph.aws4.route_53;" parent="1" vertex="1">
          <mxGeometry x="785" y="-70" width="80" height="110" as="geometry" />
        </mxCell>
        <mxCell id="fZrfjf4ZiOjg9vHSnZEF-14" style="edgeStyle=orthogonalEdgeStyle;rounded=0;orthogonalLoop=1;jettySize=auto;html=1;" parent="1" source="tyxObl4fR7WhXBJt-Da6-19" target="tyxObl4fR7WhXBJt-Da6-41" edge="1">
          <mxGeometry relative="1" as="geometry" />
        </mxCell>
        <mxCell id="fZrfjf4ZiOjg9vHSnZEF-15" style="edgeStyle=orthogonalEdgeStyle;rounded=0;orthogonalLoop=1;jettySize=auto;html=1;" parent="1" edge="1">
          <mxGeometry relative="1" as="geometry">
            <mxPoint x="765" y="130" as="sourcePoint" />
            <mxPoint x="550" y="505" as="targetPoint" />
            <Array as="points">
              <mxPoint x="750" y="130" />
              <mxPoint x="750" y="505" />
            </Array>
          </mxGeometry>
        </mxCell>
        <mxCell id="fZrfjf4ZiOjg9vHSnZEF-16" style="edgeStyle=orthogonalEdgeStyle;rounded=0;orthogonalLoop=1;jettySize=auto;html=1;" parent="1" source="tyxObl4fR7WhXBJt-Da6-19" target="fZrfjf4ZiOjg9vHSnZEF-11" edge="1">
          <mxGeometry relative="1" as="geometry">
            <Array as="points">
              <mxPoint x="880" y="150" />
              <mxPoint x="880" y="500" />
            </Array>
          </mxGeometry>
        </mxCell>
        <mxCell id="tyxObl4fR7WhXBJt-Da6-19" value="Amazon Cloudfront" style="sketch=0;outlineConnect=0;fontColor=#232F3E;gradientColor=none;strokeColor=#ffffff;fillColor=#232F3E;dashed=0;verticalLabelPosition=middle;verticalAlign=bottom;align=center;html=1;whiteSpace=wrap;fontSize=10;fontStyle=1;spacing=3;shape=mxgraph.aws4.productIcon;prIcon=mxgraph.aws4.cloudfront;" parent="1" vertex="1">
          <mxGeometry x="785" y="70" width="80" height="110" as="geometry" />
        </mxCell>
        <mxCell id="tyxObl4fR7WhXBJt-Da6-31" style="edgeStyle=orthogonalEdgeStyle;rounded=0;orthogonalLoop=1;jettySize=auto;html=1;" parent="1" source="tyxObl4fR7WhXBJt-Da6-26" target="tyxObl4fR7WhXBJt-Da6-28" edge="1">
          <mxGeometry relative="1" as="geometry">
            <Array as="points">
              <mxPoint x="280" y="660" />
              <mxPoint x="280" y="660" />
            </Array>
          </mxGeometry>
        </mxCell>
        <mxCell id="tyxObl4fR7WhXBJt-Da6-26" value="Amazon ECR" style="sketch=0;outlineConnect=0;fontColor=#232F3E;gradientColor=none;strokeColor=#ffffff;fillColor=#232F3E;dashed=0;verticalLabelPosition=middle;verticalAlign=bottom;align=center;html=1;whiteSpace=wrap;fontSize=10;fontStyle=1;spacing=3;shape=mxgraph.aws4.productIcon;prIcon=mxgraph.aws4.ecr;" parent="1" vertex="1">
          <mxGeometry x="190" y="610" width="80" height="100" as="geometry" />
        </mxCell>
        <mxCell id="tyxObl4fR7WhXBJt-Da6-29" style="edgeStyle=orthogonalEdgeStyle;rounded=0;orthogonalLoop=1;jettySize=auto;html=1;" parent="1" source="tyxObl4fR7WhXBJt-Da6-27" target="tyxObl4fR7WhXBJt-Da6-28" edge="1">
          <mxGeometry relative="1" as="geometry" />
        </mxCell>
        <mxCell id="tyxObl4fR7WhXBJt-Da6-27" value="Application Load Balancer" style="sketch=0;outlineConnect=0;fontColor=#232F3E;gradientColor=none;strokeColor=#ffffff;fillColor=#232F3E;dashed=0;verticalLabelPosition=middle;verticalAlign=bottom;align=center;html=1;whiteSpace=wrap;fontSize=10;fontStyle=1;spacing=3;shape=mxgraph.aws4.productIcon;prIcon=mxgraph.aws4.application_load_balancer;" parent="1" vertex="1">
          <mxGeometry x="490" y="470" width="80" height="110" as="geometry" />
        </mxCell>
        <mxCell id="tyxObl4fR7WhXBJt-Da6-30" style="edgeStyle=orthogonalEdgeStyle;rounded=0;orthogonalLoop=1;jettySize=auto;html=1;" parent="1" source="tyxObl4fR7WhXBJt-Da6-28" target="tyxObl4fR7WhXBJt-Da6-12" edge="1">
          <mxGeometry relative="1" as="geometry" />
        </mxCell>
        <mxCell id="tyxObl4fR7WhXBJt-Da6-28" value="Amazon EKS" style="sketch=0;outlineConnect=0;fontColor=#232F3E;gradientColor=none;strokeColor=#ffffff;fillColor=#232F3E;dashed=0;verticalLabelPosition=middle;verticalAlign=bottom;align=center;html=1;whiteSpace=wrap;fontSize=10;fontStyle=1;spacing=3;shape=mxgraph.aws4.productIcon;prIcon=mxgraph.aws4.eks;" parent="1" vertex="1">
          <mxGeometry x="490" y="650" width="80" height="100" as="geometry" />
        </mxCell>
        <mxCell id="tyxObl4fR7WhXBJt-Da6-33" value="NAT gateway" style="sketch=0;outlineConnect=0;fontColor=#232F3E;gradientColor=none;strokeColor=#232F3E;fillColor=#ffffff;dashed=0;verticalLabelPosition=bottom;verticalAlign=top;align=center;html=1;fontSize=12;fontStyle=0;aspect=fixed;shape=mxgraph.aws4.resourceIcon;resIcon=mxgraph.aws4.nat_gateway;" parent="1" vertex="1">
          <mxGeometry x="1190" y="320" width="60" height="60" as="geometry" />
        </mxCell>
        <mxCell id="tyxObl4fR7WhXBJt-Da6-34" value="Amazon CloudWatch" style="sketch=0;outlineConnect=0;fontColor=#232F3E;gradientColor=none;strokeColor=#ffffff;fillColor=#232F3E;dashed=0;verticalLabelPosition=middle;verticalAlign=bottom;align=center;html=1;whiteSpace=wrap;fontSize=10;fontStyle=1;spacing=3;shape=mxgraph.aws4.productIcon;prIcon=mxgraph.aws4.cloudwatch;" parent="1" vertex="1">
          <mxGeometry x="1190" y="10" width="80" height="110" as="geometry" />
        </mxCell>
        <mxCell id="fZrfjf4ZiOjg9vHSnZEF-19" style="edgeStyle=orthogonalEdgeStyle;rounded=0;orthogonalLoop=1;jettySize=auto;html=1;" parent="1" source="tyxObl4fR7WhXBJt-Da6-35" target="tyxObl4fR7WhXBJt-Da6-3" edge="1">
          <mxGeometry relative="1" as="geometry">
            <Array as="points">
              <mxPoint x="750" y="660" />
              <mxPoint x="750" y="540" />
            </Array>
          </mxGeometry>
        </mxCell>
        <mxCell id="fZrfjf4ZiOjg9vHSnZEF-20" style="edgeStyle=orthogonalEdgeStyle;rounded=0;orthogonalLoop=1;jettySize=auto;html=1;" parent="1" source="tyxObl4fR7WhXBJt-Da6-35" target="tyxObl4fR7WhXBJt-Da6-4" edge="1">
          <mxGeometry relative="1" as="geometry">
            <Array as="points">
              <mxPoint x="750" y="660" />
              <mxPoint x="750" y="705" />
            </Array>
          </mxGeometry>
        </mxCell>
        <mxCell id="fZrfjf4ZiOjg9vHSnZEF-21" style="edgeStyle=orthogonalEdgeStyle;rounded=0;orthogonalLoop=1;jettySize=auto;html=1;" parent="1" source="tyxObl4fR7WhXBJt-Da6-35" target="tyxObl4fR7WhXBJt-Da6-11" edge="1">
          <mxGeometry relative="1" as="geometry">
            <Array as="points">
              <mxPoint x="750" y="660" />
              <mxPoint x="750" y="820" />
            </Array>
          </mxGeometry>
        </mxCell>
        <mxCell id="fZrfjf4ZiOjg9vHSnZEF-22" style="edgeStyle=orthogonalEdgeStyle;rounded=0;orthogonalLoop=1;jettySize=auto;html=1;" parent="1" source="tyxObl4fR7WhXBJt-Da6-35" target="fZrfjf4ZiOjg9vHSnZEF-8" edge="1">
          <mxGeometry relative="1" as="geometry">
            <Array as="points">
              <mxPoint x="880" y="660" />
              <mxPoint x="880" y="540" />
            </Array>
          </mxGeometry>
        </mxCell>
        <mxCell id="fZrfjf4ZiOjg9vHSnZEF-23" style="edgeStyle=orthogonalEdgeStyle;rounded=0;orthogonalLoop=1;jettySize=auto;html=1;" parent="1" source="tyxObl4fR7WhXBJt-Da6-35" target="fZrfjf4ZiOjg9vHSnZEF-9" edge="1">
          <mxGeometry relative="1" as="geometry">
            <Array as="points">
              <mxPoint x="880" y="660" />
              <mxPoint x="880" y="705" />
            </Array>
          </mxGeometry>
        </mxCell>
        <mxCell id="fZrfjf4ZiOjg9vHSnZEF-24" style="edgeStyle=orthogonalEdgeStyle;rounded=0;orthogonalLoop=1;jettySize=auto;html=1;" parent="1" source="tyxObl4fR7WhXBJt-Da6-35" target="fZrfjf4ZiOjg9vHSnZEF-7" edge="1">
          <mxGeometry relative="1" as="geometry">
            <Array as="points">
              <mxPoint x="880" y="660" />
              <mxPoint x="880" y="820" />
            </Array>
          </mxGeometry>
        </mxCell>
        <mxCell id="tyxObl4fR7WhXBJt-Da6-35" value="Private Route table" style="sketch=0;outlineConnect=0;fontColor=#232F3E;gradientColor=none;strokeColor=#232F3E;fillColor=#ffffff;dashed=0;verticalLabelPosition=bottom;verticalAlign=top;align=center;html=1;fontSize=12;fontStyle=0;aspect=fixed;shape=mxgraph.aws4.resourceIcon;resIcon=mxgraph.aws4.route_table;" parent="1" vertex="1">
          <mxGeometry x="795" y="630" width="60" height="60" as="geometry" />
        </mxCell>
        <mxCell id="tyxObl4fR7WhXBJt-Da6-41" value="Application Load Balancer" style="sketch=0;outlineConnect=0;fontColor=#232F3E;gradientColor=none;strokeColor=#ffffff;fillColor=#232F3E;dashed=0;verticalLabelPosition=middle;verticalAlign=bottom;align=center;html=1;whiteSpace=wrap;fontSize=10;fontStyle=1;spacing=3;shape=mxgraph.aws4.productIcon;prIcon=mxgraph.aws4.application_load_balancer;" parent="1" vertex="1">
          <mxGeometry x="1060.25" y="305" width="80" height="110" as="geometry" />
        </mxCell>
        <mxCell id="fZrfjf4ZiOjg9vHSnZEF-1" value="Internet Gateway" style="sketch=0;outlineConnect=0;fontColor=#232F3E;gradientColor=none;fillColor=#8C4FFF;strokeColor=none;dashed=0;verticalLabelPosition=bottom;verticalAlign=top;align=center;html=1;fontSize=12;fontStyle=0;aspect=fixed;pointerEvents=1;shape=mxgraph.aws4.internet_gateway;" parent="1" vertex="1">
          <mxGeometry x="795" y="210" width="60" height="60" as="geometry" />
        </mxCell>
        <mxCell id="fZrfjf4ZiOjg9vHSnZEF-2" value="Public Subnet - 10.0.100.0/24" style="sketch=0;outlineConnect=0;html=1;whiteSpace=wrap;fontSize=12;fontStyle=0;shape=mxgraph.aws4.group;grIcon=mxgraph.aws4.group_subnet;strokeColor=#82b366;fillColor=#d5e8d4;verticalAlign=top;align=left;spacingLeft=30;dashed=0;" parent="1" vertex="1">
          <mxGeometry x="350" y="280" width="360.5" height="150" as="geometry" />
        </mxCell>
        <mxCell id="fZrfjf4ZiOjg9vHSnZEF-25" style="edgeStyle=orthogonalEdgeStyle;rounded=0;orthogonalLoop=1;jettySize=auto;html=1;dashed=1;" parent="1" source="fZrfjf4ZiOjg9vHSnZEF-3" target="fZrfjf4ZiOjg9vHSnZEF-2" edge="1">
          <mxGeometry relative="1" as="geometry" />
        </mxCell>
        <mxCell id="fZrfjf4ZiOjg9vHSnZEF-26" style="edgeStyle=orthogonalEdgeStyle;rounded=0;orthogonalLoop=1;jettySize=auto;html=1;dashed=1;" parent="1" source="fZrfjf4ZiOjg9vHSnZEF-3" target="tyxObl4fR7WhXBJt-Da6-32" edge="1">
          <mxGeometry relative="1" as="geometry" />
        </mxCell>
        <mxCell id="fZrfjf4ZiOjg9vHSnZEF-3" value="Public Route table" style="sketch=0;outlineConnect=0;fontColor=#232F3E;gradientColor=none;strokeColor=#232F3E;fillColor=#ffffff;dashed=0;verticalLabelPosition=bottom;verticalAlign=top;align=center;html=1;fontSize=12;fontStyle=0;aspect=fixed;shape=mxgraph.aws4.resourceIcon;resIcon=mxgraph.aws4.route_table;" parent="1" vertex="1">
          <mxGeometry x="795" y="325" width="60" height="60" as="geometry" />
        </mxCell>
        <mxCell id="fZrfjf4ZiOjg9vHSnZEF-6" value="Bastion Host" style="sketch=0;outlineConnect=0;fontColor=#232F3E;gradientColor=none;strokeColor=#ffffff;fillColor=#232F3E;dashed=0;verticalLabelPosition=middle;verticalAlign=bottom;align=center;html=1;whiteSpace=wrap;fontSize=10;fontStyle=1;spacing=3;shape=mxgraph.aws4.productIcon;prIcon=mxgraph.aws4.ec2;" parent="1" vertex="1">
          <mxGeometry x="490" y="310" width="80" height="100" as="geometry" />
        </mxCell>
        <mxCell id="fZrfjf4ZiOjg9vHSnZEF-7" value="Private Subnet - 10.0.6.0/24" style="sketch=0;outlineConnect=0;html=1;whiteSpace=wrap;fontSize=12;fontStyle=0;shape=mxgraph.aws4.group;grIcon=mxgraph.aws4.group_subnet;strokeColor=#6c8ebf;fillColor=#dae8fc;verticalAlign=top;align=left;spacingLeft=30;dashed=0;" parent="1" vertex="1">
          <mxGeometry x="920" y="790" width="360" height="150" as="geometry" />
        </mxCell>
        <mxCell id="fZrfjf4ZiOjg9vHSnZEF-9" value="Private Subnet - 10.0.4.0/24" style="sketch=0;outlineConnect=0;html=1;whiteSpace=wrap;fontSize=12;fontStyle=0;shape=mxgraph.aws4.group;grIcon=mxgraph.aws4.group_subnet;strokeColor=#6c8ebf;fillColor=#dae8fc;verticalAlign=top;align=left;spacingLeft=30;dashed=0;" parent="1" vertex="1">
          <mxGeometry x="920" y="615" width="360" height="150" as="geometry" />
        </mxCell>
        <mxCell id="fZrfjf4ZiOjg9vHSnZEF-10" value="Amazon&lt;br&gt;Aurora Multi AZ" style="sketch=0;outlineConnect=0;fontColor=#232F3E;gradientColor=none;strokeColor=#ffffff;fillColor=#232F3E;dashed=0;verticalLabelPosition=middle;verticalAlign=bottom;align=center;html=1;whiteSpace=wrap;fontSize=10;fontStyle=1;spacing=3;shape=mxgraph.aws4.productIcon;prIcon=mxgraph.aws4.aurora;" parent="1" vertex="1">
          <mxGeometry x="1060.25" y="820" width="80" height="110" as="geometry" />
        </mxCell>
        <mxCell id="fZrfjf4ZiOjg9vHSnZEF-17" style="edgeStyle=orthogonalEdgeStyle;rounded=0;orthogonalLoop=1;jettySize=auto;html=1;" parent="1" source="fZrfjf4ZiOjg9vHSnZEF-11" target="fZrfjf4ZiOjg9vHSnZEF-12" edge="1">
          <mxGeometry relative="1" as="geometry" />
        </mxCell>
        <mxCell id="fZrfjf4ZiOjg9vHSnZEF-11" value="Application Load Balancer" style="sketch=0;outlineConnect=0;fontColor=#232F3E;gradientColor=none;strokeColor=#ffffff;fillColor=#232F3E;dashed=0;verticalLabelPosition=middle;verticalAlign=bottom;align=center;html=1;whiteSpace=wrap;fontSize=10;fontStyle=1;spacing=3;shape=mxgraph.aws4.productIcon;prIcon=mxgraph.aws4.application_load_balancer;" parent="1" vertex="1">
          <mxGeometry x="1060" y="470" width="80" height="110" as="geometry" />
        </mxCell>
        <mxCell id="fZrfjf4ZiOjg9vHSnZEF-18" style="edgeStyle=orthogonalEdgeStyle;rounded=0;orthogonalLoop=1;jettySize=auto;html=1;" parent="1" source="fZrfjf4ZiOjg9vHSnZEF-12" target="fZrfjf4ZiOjg9vHSnZEF-10" edge="1">
          <mxGeometry relative="1" as="geometry" />
        </mxCell>
        <mxCell id="fZrfjf4ZiOjg9vHSnZEF-12" value="Amazon EKS" style="sketch=0;outlineConnect=0;fontColor=#232F3E;gradientColor=none;strokeColor=#ffffff;fillColor=#232F3E;dashed=0;verticalLabelPosition=middle;verticalAlign=bottom;align=center;html=1;whiteSpace=wrap;fontSize=10;fontStyle=1;spacing=3;shape=mxgraph.aws4.productIcon;prIcon=mxgraph.aws4.eks;" parent="1" vertex="1">
          <mxGeometry x="1060.25" y="665" width="80" height="100" as="geometry" />
        </mxCell>
      </root>
    </mxGraphModel>
  </diagram>
</mxfile>
